<mxfile host="app.diagrams.net" agent="Mozilla/5.0 (Windows NT 10.0; Win64; x64) AppleWebKit/537.36 (KHTML, like Gecko) Chrome/137.0.0.0 Safari/537.36 Edg/137.0.0.0" version="27.1.4">
  <diagram name="Page-1" id="LLpskVTNyjd0eYGFW1nT">
    <mxGraphModel dx="3558" dy="3377" grid="1" gridSize="10" guides="1" tooltips="1" connect="1" arrows="1" fold="1" page="1" pageScale="1" pageWidth="827" pageHeight="1169" math="0" shadow="0">
      <root>
        <mxCell id="0" />
        <mxCell id="1" parent="0" />
        <mxCell id="5ddJLNY-2XlwTEDdsY8z-5" value="Create project" style="ellipse;whiteSpace=wrap;html=1;" parent="1" vertex="1">
          <mxGeometry x="307" y="-535" width="120" height="70" as="geometry" />
        </mxCell>
        <mxCell id="5ddJLNY-2XlwTEDdsY8z-6" value="Assign members" style="ellipse;whiteSpace=wrap;html=1;" parent="1" vertex="1">
          <mxGeometry x="302" y="-250" width="120" height="80" as="geometry" />
        </mxCell>
        <mxCell id="5ddJLNY-2XlwTEDdsY8z-8" value="Set goals" style="ellipse;whiteSpace=wrap;html=1;" parent="1" vertex="1">
          <mxGeometry x="304" y="-441" width="126" height="75" as="geometry" />
        </mxCell>
        <mxCell id="TwEvVW-eclEVVmXi3KOq-1" value="Member" style="shape=umlActor;verticalLabelPosition=bottom;verticalAlign=top;html=1;outlineConnect=0;" parent="1" vertex="1">
          <mxGeometry x="130" y="-451" width="30" height="60" as="geometry" />
        </mxCell>
        <mxCell id="TwEvVW-eclEVVmXi3KOq-2" value="Manager" style="shape=umlActor;verticalLabelPosition=bottom;verticalAlign=top;html=1;outlineConnect=0;" parent="1" vertex="1">
          <mxGeometry x="130" y="-310" width="30" height="60" as="geometry" />
        </mxCell>
        <mxCell id="TwEvVW-eclEVVmXi3KOq-3" value="Admin" style="shape=umlActor;verticalLabelPosition=bottom;verticalAlign=top;html=1;outlineConnect=0;" parent="1" vertex="1">
          <mxGeometry x="660" y="-391" width="30" height="60" as="geometry" />
        </mxCell>
        <mxCell id="TwEvVW-eclEVVmXi3KOq-23" value="" style="endArrow=none;html=1;rounded=0;" parent="1" source="TwEvVW-eclEVVmXi3KOq-2" target="5ddJLNY-2XlwTEDdsY8z-6" edge="1">
          <mxGeometry width="50" height="50" relative="1" as="geometry">
            <mxPoint x="140" y="72" as="sourcePoint" />
            <mxPoint x="328" y="-2" as="targetPoint" />
          </mxGeometry>
        </mxCell>
        <mxCell id="TwEvVW-eclEVVmXi3KOq-25" value="" style="endArrow=none;html=1;rounded=0;" parent="1" source="TwEvVW-eclEVVmXi3KOq-2" target="5ddJLNY-2XlwTEDdsY8z-5" edge="1">
          <mxGeometry width="50" height="50" relative="1" as="geometry">
            <mxPoint x="150" y="59" as="sourcePoint" />
            <mxPoint x="342" y="-101" as="targetPoint" />
          </mxGeometry>
        </mxCell>
        <mxCell id="TwEvVW-eclEVVmXi3KOq-33" value="" style="endArrow=none;html=1;rounded=0;" parent="1" source="TwEvVW-eclEVVmXi3KOq-1" target="5ddJLNY-2XlwTEDdsY8z-5" edge="1">
          <mxGeometry width="50" height="50" relative="1" as="geometry">
            <mxPoint x="240" y="-71" as="sourcePoint" />
            <mxPoint x="470" y="-91" as="targetPoint" />
          </mxGeometry>
        </mxCell>
        <mxCell id="TwEvVW-eclEVVmXi3KOq-35" value="" style="endArrow=none;html=1;rounded=0;exitX=1;exitY=0.5;exitDx=0;exitDy=0;" parent="1" source="5ddJLNY-2XlwTEDdsY8z-6" target="TwEvVW-eclEVVmXi3KOq-3" edge="1">
          <mxGeometry width="50" height="50" relative="1" as="geometry">
            <mxPoint x="420" y="-41" as="sourcePoint" />
            <mxPoint x="470" y="-91" as="targetPoint" />
          </mxGeometry>
        </mxCell>
        <mxCell id="TwEvVW-eclEVVmXi3KOq-41" value="" style="endArrow=none;html=1;rounded=0;" parent="1" source="TwEvVW-eclEVVmXi3KOq-3" target="5ddJLNY-2XlwTEDdsY8z-5" edge="1">
          <mxGeometry width="50" height="50" relative="1" as="geometry">
            <mxPoint x="720" y="-114" as="sourcePoint" />
            <mxPoint x="1000" y="-191" as="targetPoint" />
          </mxGeometry>
        </mxCell>
        <mxCell id="TwEvVW-eclEVVmXi3KOq-42" value="" style="endArrow=none;html=1;rounded=0;" parent="1" source="TwEvVW-eclEVVmXi3KOq-3" target="5ddJLNY-2XlwTEDdsY8z-8" edge="1">
          <mxGeometry width="50" height="50" relative="1" as="geometry">
            <mxPoint x="730" y="-191" as="sourcePoint" />
            <mxPoint x="810" y="-351" as="targetPoint" />
          </mxGeometry>
        </mxCell>
        <mxCell id="TwEvVW-eclEVVmXi3KOq-47" value="" style="endArrow=none;html=1;rounded=0;exitX=0.5;exitY=0.5;exitDx=0;exitDy=0;exitPerimeter=0;" parent="1" source="TwEvVW-eclEVVmXi3KOq-2" target="5ddJLNY-2XlwTEDdsY8z-8" edge="1">
          <mxGeometry width="50" height="50" relative="1" as="geometry">
            <mxPoint x="260" y="14" as="sourcePoint" />
            <mxPoint x="454" y="-251" as="targetPoint" />
          </mxGeometry>
        </mxCell>
        <mxCell id="8Crcheac2xjCXa0UdA6q-4" value="Set deadlines" style="ellipse;whiteSpace=wrap;html=1;" parent="1" vertex="1">
          <mxGeometry x="304" y="-351" width="118" height="80" as="geometry" />
        </mxCell>
        <mxCell id="8Crcheac2xjCXa0UdA6q-5" value="" style="endArrow=none;html=1;rounded=0;" parent="1" source="TwEvVW-eclEVVmXi3KOq-2" target="8Crcheac2xjCXa0UdA6q-4" edge="1">
          <mxGeometry width="50" height="50" relative="1" as="geometry">
            <mxPoint x="190" y="-251" as="sourcePoint" />
            <mxPoint x="374" y="-87" as="targetPoint" />
          </mxGeometry>
        </mxCell>
        <mxCell id="8Crcheac2xjCXa0UdA6q-6" value="" style="endArrow=none;html=1;rounded=0;" parent="1" source="8Crcheac2xjCXa0UdA6q-4" target="TwEvVW-eclEVVmXi3KOq-3" edge="1">
          <mxGeometry width="50" height="50" relative="1" as="geometry">
            <mxPoint x="650" y="-70" as="sourcePoint" />
            <mxPoint x="870" y="-341" as="targetPoint" />
          </mxGeometry>
        </mxCell>
        <mxCell id="8Crcheac2xjCXa0UdA6q-11" value="Create task" style="ellipse;whiteSpace=wrap;html=1;" parent="1" vertex="1">
          <mxGeometry x="327.5" y="-995" width="132.5" height="70" as="geometry" />
        </mxCell>
        <mxCell id="8Crcheac2xjCXa0UdA6q-12" value="&lt;span style=&quot;&quot; data-end=&quot;400&quot; data-start=&quot;366&quot;&gt;Manage subtasks&lt;/span&gt;" style="ellipse;whiteSpace=wrap;html=1;" parent="1" vertex="1">
          <mxGeometry x="490" y="-1060" width="120" height="80" as="geometry" />
        </mxCell>
        <mxCell id="8Crcheac2xjCXa0UdA6q-13" value="Categorize by status" style="ellipse;whiteSpace=wrap;html=1;" parent="1" vertex="1">
          <mxGeometry x="332" y="-900" width="128" height="65" as="geometry" />
        </mxCell>
        <mxCell id="8Crcheac2xjCXa0UdA6q-14" value="Member" style="shape=umlActor;verticalLabelPosition=bottom;verticalAlign=top;html=1;outlineConnect=0;" parent="1" vertex="1">
          <mxGeometry x="120" y="-985" width="30" height="60" as="geometry" />
        </mxCell>
        <mxCell id="8Crcheac2xjCXa0UdA6q-15" value="Manager" style="shape=umlActor;verticalLabelPosition=bottom;verticalAlign=top;html=1;outlineConnect=0;" parent="1" vertex="1">
          <mxGeometry x="120" y="-860" width="30" height="60" as="geometry" />
        </mxCell>
        <mxCell id="8Crcheac2xjCXa0UdA6q-16" value="Admin" style="shape=umlActor;verticalLabelPosition=bottom;verticalAlign=top;html=1;outlineConnect=0;" parent="1" vertex="1">
          <mxGeometry x="650" y="-880" width="30" height="60" as="geometry" />
        </mxCell>
        <mxCell id="8Crcheac2xjCXa0UdA6q-18" value="" style="endArrow=none;html=1;rounded=0;" parent="1" source="8Crcheac2xjCXa0UdA6q-15" target="8Crcheac2xjCXa0UdA6q-11" edge="1">
          <mxGeometry width="50" height="50" relative="1" as="geometry">
            <mxPoint x="140" y="-440" as="sourcePoint" />
            <mxPoint x="332" y="-600" as="targetPoint" />
          </mxGeometry>
        </mxCell>
        <mxCell id="8Crcheac2xjCXa0UdA6q-19" value="" style="endArrow=none;html=1;rounded=0;" parent="1" source="8Crcheac2xjCXa0UdA6q-14" target="8Crcheac2xjCXa0UdA6q-11" edge="1">
          <mxGeometry width="50" height="50" relative="1" as="geometry">
            <mxPoint x="230" y="-570" as="sourcePoint" />
            <mxPoint x="460" y="-590" as="targetPoint" />
          </mxGeometry>
        </mxCell>
        <mxCell id="8Crcheac2xjCXa0UdA6q-22" value="" style="endArrow=none;html=1;rounded=0;exitX=0.5;exitY=0.5;exitDx=0;exitDy=0;exitPerimeter=0;" parent="1" source="8Crcheac2xjCXa0UdA6q-16" target="8Crcheac2xjCXa0UdA6q-11" edge="1">
          <mxGeometry width="50" height="50" relative="1" as="geometry">
            <mxPoint x="710" y="-613" as="sourcePoint" />
            <mxPoint x="990" y="-690" as="targetPoint" />
          </mxGeometry>
        </mxCell>
        <mxCell id="8Crcheac2xjCXa0UdA6q-23" value="" style="endArrow=none;html=1;rounded=0;" parent="1" source="8Crcheac2xjCXa0UdA6q-16" target="8Crcheac2xjCXa0UdA6q-13" edge="1">
          <mxGeometry width="50" height="50" relative="1" as="geometry">
            <mxPoint x="720" y="-690" as="sourcePoint" />
            <mxPoint x="800" y="-850" as="targetPoint" />
          </mxGeometry>
        </mxCell>
        <mxCell id="8Crcheac2xjCXa0UdA6q-24" value="" style="endArrow=none;html=1;rounded=0;exitX=0.5;exitY=0.5;exitDx=0;exitDy=0;exitPerimeter=0;" parent="1" source="8Crcheac2xjCXa0UdA6q-15" target="8Crcheac2xjCXa0UdA6q-13" edge="1">
          <mxGeometry width="50" height="50" relative="1" as="geometry">
            <mxPoint x="250" y="-485" as="sourcePoint" />
            <mxPoint x="444" y="-750" as="targetPoint" />
          </mxGeometry>
        </mxCell>
        <mxCell id="8Crcheac2xjCXa0UdA6q-26" value="Set deadlines and priorities" style="ellipse;whiteSpace=wrap;html=1;" parent="1" vertex="1">
          <mxGeometry x="329.75" y="-809" width="128" height="70" as="geometry" />
        </mxCell>
        <mxCell id="8Crcheac2xjCXa0UdA6q-27" value="" style="endArrow=none;html=1;rounded=0;" parent="1" source="8Crcheac2xjCXa0UdA6q-15" target="8Crcheac2xjCXa0UdA6q-26" edge="1">
          <mxGeometry width="50" height="50" relative="1" as="geometry">
            <mxPoint x="180" y="-750" as="sourcePoint" />
            <mxPoint x="364" y="-586" as="targetPoint" />
          </mxGeometry>
        </mxCell>
        <mxCell id="8Crcheac2xjCXa0UdA6q-28" value="" style="endArrow=none;html=1;rounded=0;" parent="1" source="8Crcheac2xjCXa0UdA6q-26" target="8Crcheac2xjCXa0UdA6q-16" edge="1">
          <mxGeometry width="50" height="50" relative="1" as="geometry">
            <mxPoint x="640" y="-569" as="sourcePoint" />
            <mxPoint x="860" y="-840" as="targetPoint" />
          </mxGeometry>
        </mxCell>
        <mxCell id="8Crcheac2xjCXa0UdA6q-33" value="Manage members" style="ellipse;whiteSpace=wrap;html=1;" parent="1" vertex="1">
          <mxGeometry x="1124" y="200" width="128" height="60" as="geometry" />
        </mxCell>
        <mxCell id="8Crcheac2xjCXa0UdA6q-35" value="Assign members" style="ellipse;whiteSpace=wrap;html=1;" parent="1" vertex="1">
          <mxGeometry x="1124" y="295" width="128" height="70" as="geometry" />
        </mxCell>
        <mxCell id="8Crcheac2xjCXa0UdA6q-37" value="Manager" style="shape=umlActor;verticalLabelPosition=bottom;verticalAlign=top;html=1;outlineConnect=0;" parent="1" vertex="1">
          <mxGeometry x="1040" y="295" width="30" height="60" as="geometry" />
        </mxCell>
        <mxCell id="8Crcheac2xjCXa0UdA6q-38" value="Admin" style="shape=umlActor;verticalLabelPosition=bottom;verticalAlign=top;html=1;outlineConnect=0;" parent="1" vertex="1">
          <mxGeometry x="1440" y="300" width="30" height="60" as="geometry" />
        </mxCell>
        <mxCell id="8Crcheac2xjCXa0UdA6q-44" value="" style="endArrow=none;html=1;rounded=0;exitX=0.5;exitY=0.5;exitDx=0;exitDy=0;exitPerimeter=0;" parent="1" source="8Crcheac2xjCXa0UdA6q-38" target="8Crcheac2xjCXa0UdA6q-33" edge="1">
          <mxGeometry width="50" height="50" relative="1" as="geometry">
            <mxPoint x="1500" y="577" as="sourcePoint" />
            <mxPoint x="1780" y="500" as="targetPoint" />
          </mxGeometry>
        </mxCell>
        <mxCell id="8Crcheac2xjCXa0UdA6q-45" value="" style="endArrow=none;html=1;rounded=0;" parent="1" source="8Crcheac2xjCXa0UdA6q-38" target="8Crcheac2xjCXa0UdA6q-35" edge="1">
          <mxGeometry width="50" height="50" relative="1" as="geometry">
            <mxPoint x="1510" y="500" as="sourcePoint" />
            <mxPoint x="1590" y="340" as="targetPoint" />
          </mxGeometry>
        </mxCell>
        <mxCell id="8Crcheac2xjCXa0UdA6q-46" value="" style="endArrow=none;html=1;rounded=0;exitX=0.5;exitY=0.5;exitDx=0;exitDy=0;exitPerimeter=0;" parent="1" source="8Crcheac2xjCXa0UdA6q-37" target="8Crcheac2xjCXa0UdA6q-35" edge="1">
          <mxGeometry width="50" height="50" relative="1" as="geometry">
            <mxPoint x="1040" y="705" as="sourcePoint" />
            <mxPoint x="1234" y="440" as="targetPoint" />
          </mxGeometry>
        </mxCell>
        <mxCell id="8Crcheac2xjCXa0UdA6q-48" value="Set user access" style="ellipse;whiteSpace=wrap;html=1;" parent="1" vertex="1">
          <mxGeometry x="1122" y="390" width="128" height="70" as="geometry" />
        </mxCell>
        <mxCell id="8Crcheac2xjCXa0UdA6q-50" value="" style="endArrow=none;html=1;rounded=0;" parent="1" source="8Crcheac2xjCXa0UdA6q-48" target="8Crcheac2xjCXa0UdA6q-38" edge="1">
          <mxGeometry width="50" height="50" relative="1" as="geometry">
            <mxPoint x="1430" y="621" as="sourcePoint" />
            <mxPoint x="1650" y="350" as="targetPoint" />
          </mxGeometry>
        </mxCell>
        <mxCell id="8Crcheac2xjCXa0UdA6q-65" value="Track progress" style="ellipse;whiteSpace=wrap;html=1;" parent="1" vertex="1">
          <mxGeometry x="1160" y="-1040" width="120" height="60" as="geometry" />
        </mxCell>
        <mxCell id="8Crcheac2xjCXa0UdA6q-66" value="&lt;span style=&quot;&quot; data-end=&quot;400&quot; data-start=&quot;366&quot;&gt;Generate report&lt;/span&gt;" style="ellipse;whiteSpace=wrap;html=1;" parent="1" vertex="1">
          <mxGeometry x="1140" y="-830" width="122" height="65" as="geometry" />
        </mxCell>
        <mxCell id="8Crcheac2xjCXa0UdA6q-67" value="View report" style="ellipse;whiteSpace=wrap;html=1;" parent="1" vertex="1">
          <mxGeometry x="1140" y="-930" width="128" height="60" as="geometry" />
        </mxCell>
        <mxCell id="8Crcheac2xjCXa0UdA6q-68" value="Member" style="shape=umlActor;verticalLabelPosition=bottom;verticalAlign=top;html=1;outlineConnect=0;" parent="1" vertex="1">
          <mxGeometry x="950" y="-1000" width="30" height="60" as="geometry" />
        </mxCell>
        <mxCell id="8Crcheac2xjCXa0UdA6q-69" value="Manager" style="shape=umlActor;verticalLabelPosition=bottom;verticalAlign=top;html=1;outlineConnect=0;" parent="1" vertex="1">
          <mxGeometry x="950" y="-859" width="30" height="60" as="geometry" />
        </mxCell>
        <mxCell id="8Crcheac2xjCXa0UdA6q-70" value="Admin" style="shape=umlActor;verticalLabelPosition=bottom;verticalAlign=top;html=1;outlineConnect=0;" parent="1" vertex="1">
          <mxGeometry x="1480" y="-940" width="30" height="60" as="geometry" />
        </mxCell>
        <mxCell id="8Crcheac2xjCXa0UdA6q-71" value="" style="endArrow=none;html=1;rounded=0;entryX=0;entryY=0.5;entryDx=0;entryDy=0;" parent="1" source="8Crcheac2xjCXa0UdA6q-69" target="8Crcheac2xjCXa0UdA6q-66" edge="1">
          <mxGeometry width="50" height="50" relative="1" as="geometry">
            <mxPoint x="960" y="-477" as="sourcePoint" />
            <mxPoint x="1148" y="-551" as="targetPoint" />
          </mxGeometry>
        </mxCell>
        <mxCell id="8Crcheac2xjCXa0UdA6q-72" value="" style="endArrow=none;html=1;rounded=0;" parent="1" source="8Crcheac2xjCXa0UdA6q-69" target="8Crcheac2xjCXa0UdA6q-65" edge="1">
          <mxGeometry width="50" height="50" relative="1" as="geometry">
            <mxPoint x="970" y="-490" as="sourcePoint" />
            <mxPoint x="1162" y="-650" as="targetPoint" />
          </mxGeometry>
        </mxCell>
        <mxCell id="8Crcheac2xjCXa0UdA6q-73" value="" style="endArrow=none;html=1;rounded=0;" parent="1" source="8Crcheac2xjCXa0UdA6q-68" target="8Crcheac2xjCXa0UdA6q-65" edge="1">
          <mxGeometry width="50" height="50" relative="1" as="geometry">
            <mxPoint x="1060" y="-620" as="sourcePoint" />
            <mxPoint x="1290" y="-640" as="targetPoint" />
          </mxGeometry>
        </mxCell>
        <mxCell id="8Crcheac2xjCXa0UdA6q-74" value="" style="endArrow=none;html=1;rounded=0;exitX=1;exitY=0.5;exitDx=0;exitDy=0;" parent="1" source="8Crcheac2xjCXa0UdA6q-66" target="8Crcheac2xjCXa0UdA6q-70" edge="1">
          <mxGeometry width="50" height="50" relative="1" as="geometry">
            <mxPoint x="1240" y="-590" as="sourcePoint" />
            <mxPoint x="1290" y="-640" as="targetPoint" />
          </mxGeometry>
        </mxCell>
        <mxCell id="8Crcheac2xjCXa0UdA6q-76" value="" style="endArrow=none;html=1;rounded=0;" parent="1" source="8Crcheac2xjCXa0UdA6q-70" target="8Crcheac2xjCXa0UdA6q-65" edge="1">
          <mxGeometry width="50" height="50" relative="1" as="geometry">
            <mxPoint x="1440" y="-950" as="sourcePoint" />
            <mxPoint x="1820" y="-740" as="targetPoint" />
          </mxGeometry>
        </mxCell>
        <mxCell id="8Crcheac2xjCXa0UdA6q-77" value="" style="endArrow=none;html=1;rounded=0;" parent="1" source="8Crcheac2xjCXa0UdA6q-70" target="8Crcheac2xjCXa0UdA6q-67" edge="1">
          <mxGeometry width="50" height="50" relative="1" as="geometry">
            <mxPoint x="1550" y="-740" as="sourcePoint" />
            <mxPoint x="1630" y="-900" as="targetPoint" />
          </mxGeometry>
        </mxCell>
        <mxCell id="8Crcheac2xjCXa0UdA6q-78" value="" style="endArrow=none;html=1;rounded=0;" parent="1" source="8Crcheac2xjCXa0UdA6q-69" target="8Crcheac2xjCXa0UdA6q-67" edge="1">
          <mxGeometry width="50" height="50" relative="1" as="geometry">
            <mxPoint x="1060" y="-840" as="sourcePoint" />
            <mxPoint x="1274" y="-800" as="targetPoint" />
          </mxGeometry>
        </mxCell>
        <mxCell id="8Crcheac2xjCXa0UdA6q-80" value="Export report" style="ellipse;whiteSpace=wrap;html=1;" parent="1" vertex="1">
          <mxGeometry x="1310" y="-770" width="120" height="55" as="geometry" />
        </mxCell>
        <mxCell id="8Crcheac2xjCXa0UdA6q-87" value="Upload resources/files" style="ellipse;whiteSpace=wrap;html=1;" parent="1" vertex="1">
          <mxGeometry x="380" y="180" width="130" height="70" as="geometry" />
        </mxCell>
        <mxCell id="8Crcheac2xjCXa0UdA6q-89" value="Share resources/files" style="ellipse;whiteSpace=wrap;html=1;" parent="1" vertex="1">
          <mxGeometry x="490" y="271" width="124" height="69" as="geometry" />
        </mxCell>
        <mxCell id="8Crcheac2xjCXa0UdA6q-90" value="User" style="shape=umlActor;verticalLabelPosition=bottom;verticalAlign=top;html=1;outlineConnect=0;" parent="1" vertex="1">
          <mxGeometry x="230" y="250" width="30" height="60" as="geometry" />
        </mxCell>
        <mxCell id="8Crcheac2xjCXa0UdA6q-95" value="" style="endArrow=none;html=1;rounded=0;" parent="1" source="8Crcheac2xjCXa0UdA6q-90" target="8Crcheac2xjCXa0UdA6q-87" edge="1">
          <mxGeometry width="50" height="50" relative="1" as="geometry">
            <mxPoint x="350" y="600" as="sourcePoint" />
            <mxPoint x="580" y="580" as="targetPoint" />
          </mxGeometry>
        </mxCell>
        <mxCell id="8Crcheac2xjCXa0UdA6q-103" value="" style="endArrow=none;html=1;rounded=0;" parent="1" source="8Crcheac2xjCXa0UdA6q-90" target="8Crcheac2xjCXa0UdA6q-89" edge="1">
          <mxGeometry width="50" height="50" relative="1" as="geometry">
            <mxPoint x="290" y="292" as="sourcePoint" />
            <mxPoint x="472" y="250" as="targetPoint" />
          </mxGeometry>
        </mxCell>
        <mxCell id="8Crcheac2xjCXa0UdA6q-122" value="Comment on task/projects" style="ellipse;whiteSpace=wrap;html=1;" parent="1" vertex="1">
          <mxGeometry x="1140" y="-597.5" width="118" height="60" as="geometry" />
        </mxCell>
        <mxCell id="8Crcheac2xjCXa0UdA6q-123" value="Get notifications" style="ellipse;whiteSpace=wrap;html=1;" parent="1" vertex="1">
          <mxGeometry x="1288" y="-492.5" width="130" height="50" as="geometry" />
        </mxCell>
        <mxCell id="8Crcheac2xjCXa0UdA6q-124" value="User" style="shape=umlActor;verticalLabelPosition=bottom;verticalAlign=top;html=1;outlineConnect=0;" parent="1" vertex="1">
          <mxGeometry x="1000" y="-497.5" width="30" height="60" as="geometry" />
        </mxCell>
        <mxCell id="8Crcheac2xjCXa0UdA6q-128" value="" style="endArrow=none;html=1;rounded=0;" parent="1" source="8Crcheac2xjCXa0UdA6q-124" target="8Crcheac2xjCXa0UdA6q-122" edge="1">
          <mxGeometry width="50" height="50" relative="1" as="geometry">
            <mxPoint x="1110" y="-117.5" as="sourcePoint" />
            <mxPoint x="1340" y="-137.5" as="targetPoint" />
          </mxGeometry>
        </mxCell>
        <mxCell id="8Crcheac2xjCXa0UdA6q-132" value="" style="endArrow=none;html=1;rounded=0;" parent="1" source="8Crcheac2xjCXa0UdA6q-124" target="8Crcheac2xjCXa0UdA6q-137" edge="1">
          <mxGeometry width="50" height="50" relative="1" as="geometry">
            <mxPoint x="1015" y="-326.5" as="sourcePoint" />
            <mxPoint x="1324" y="-297.5" as="targetPoint" />
          </mxGeometry>
        </mxCell>
        <mxCell id="8Crcheac2xjCXa0UdA6q-134" value="" style="endArrow=none;html=1;rounded=0;" parent="1" source="8Crcheac2xjCXa0UdA6q-124" target="8Crcheac2xjCXa0UdA6q-123" edge="1">
          <mxGeometry width="50" height="50" relative="1" as="geometry">
            <mxPoint x="1050" y="-425.5" as="sourcePoint" />
            <mxPoint x="1232" y="-467.5" as="targetPoint" />
          </mxGeometry>
        </mxCell>
        <mxCell id="8Crcheac2xjCXa0UdA6q-137" value="Chat" style="ellipse;whiteSpace=wrap;html=1;" parent="1" vertex="1">
          <mxGeometry x="1138" y="-410" width="120" height="50" as="geometry" />
        </mxCell>
        <mxCell id="8Crcheac2xjCXa0UdA6q-147" value="Register" style="ellipse;whiteSpace=wrap;html=1;" parent="1" vertex="1">
          <mxGeometry x="353.5" y="540" width="120" height="65" as="geometry" />
        </mxCell>
        <mxCell id="8Crcheac2xjCXa0UdA6q-148" value="Login" style="ellipse;whiteSpace=wrap;html=1;" parent="1" vertex="1">
          <mxGeometry x="353.5" y="710" width="120" height="60" as="geometry" />
        </mxCell>
        <mxCell id="8Crcheac2xjCXa0UdA6q-149" value="User" style="shape=umlActor;verticalLabelPosition=bottom;verticalAlign=top;html=1;outlineConnect=0;" parent="1" vertex="1">
          <mxGeometry x="214.5" y="620" width="30" height="60" as="geometry" />
        </mxCell>
        <mxCell id="8Crcheac2xjCXa0UdA6q-150" value="" style="endArrow=none;html=1;rounded=0;" parent="1" source="8Crcheac2xjCXa0UdA6q-149" target="8Crcheac2xjCXa0UdA6q-147" edge="1">
          <mxGeometry width="50" height="50" relative="1" as="geometry">
            <mxPoint x="324.5" y="1000" as="sourcePoint" />
            <mxPoint x="554.5" y="980" as="targetPoint" />
          </mxGeometry>
        </mxCell>
        <mxCell id="8Crcheac2xjCXa0UdA6q-151" value="" style="endArrow=none;html=1;rounded=0;" parent="1" source="8Crcheac2xjCXa0UdA6q-149" target="8Crcheac2xjCXa0UdA6q-153" edge="1">
          <mxGeometry width="50" height="50" relative="1" as="geometry">
            <mxPoint x="229.5" y="791" as="sourcePoint" />
            <mxPoint x="538.5" y="820" as="targetPoint" />
          </mxGeometry>
        </mxCell>
        <mxCell id="8Crcheac2xjCXa0UdA6q-152" value="" style="endArrow=none;html=1;rounded=0;" parent="1" source="8Crcheac2xjCXa0UdA6q-149" target="8Crcheac2xjCXa0UdA6q-148" edge="1">
          <mxGeometry width="50" height="50" relative="1" as="geometry">
            <mxPoint x="264.5" y="692" as="sourcePoint" />
            <mxPoint x="446.5" y="650" as="targetPoint" />
          </mxGeometry>
        </mxCell>
        <mxCell id="8Crcheac2xjCXa0UdA6q-153" value="Logout" style="ellipse;whiteSpace=wrap;html=1;" parent="1" vertex="1">
          <mxGeometry x="473.5" y="620" width="110" height="70" as="geometry" />
        </mxCell>
        <mxCell id="8Crcheac2xjCXa0UdA6q-154" value="Recover password" style="ellipse;whiteSpace=wrap;html=1;" parent="1" vertex="1">
          <mxGeometry x="295.5" y="820" width="130" height="70" as="geometry" />
        </mxCell>
        <mxCell id="8Crcheac2xjCXa0UdA6q-155" value="" style="endArrow=none;html=1;rounded=0;" parent="1" source="8Crcheac2xjCXa0UdA6q-149" target="8Crcheac2xjCXa0UdA6q-154" edge="1">
          <mxGeometry width="50" height="50" relative="1" as="geometry">
            <mxPoint x="315.5" y="720" as="sourcePoint" />
            <mxPoint x="491.5" y="848" as="targetPoint" />
            <Array as="points">
              <mxPoint x="245.5" y="700" />
            </Array>
          </mxGeometry>
        </mxCell>
        <mxCell id="8Crcheac2xjCXa0UdA6q-185" value="Login by phone" style="ellipse;whiteSpace=wrap;html=1;" parent="1" vertex="1">
          <mxGeometry x="540" y="740" width="120" height="70" as="geometry" />
        </mxCell>
        <mxCell id="8Crcheac2xjCXa0UdA6q-186" value="Login by email" style="ellipse;whiteSpace=wrap;html=1;" parent="1" vertex="1">
          <mxGeometry x="467.5" y="820" width="122" height="60" as="geometry" />
        </mxCell>
        <mxCell id="aBYrYfBs2FtseJG0C54a-1" value="&amp;lt;&amp;lt;extend&amp;gt;&amp;gt;" style="html=1;verticalAlign=bottom;endArrow=open;dashed=1;endSize=8;curved=0;rounded=0;" edge="1" parent="1" source="aBYrYfBs2FtseJG0C54a-12" target="5ddJLNY-2XlwTEDdsY8z-5">
          <mxGeometry relative="1" as="geometry">
            <mxPoint x="520" y="-500.41999999999996" as="sourcePoint" />
            <mxPoint x="440" y="-500.41999999999996" as="targetPoint" />
            <mxPoint as="offset" />
          </mxGeometry>
        </mxCell>
        <mxCell id="aBYrYfBs2FtseJG0C54a-3" value="&amp;lt;&amp;lt;extend&amp;gt;&amp;gt;" style="html=1;verticalAlign=bottom;endArrow=open;dashed=1;endSize=8;curved=0;rounded=0;" edge="1" parent="1" source="8Crcheac2xjCXa0UdA6q-11" target="8Crcheac2xjCXa0UdA6q-12">
          <mxGeometry relative="1" as="geometry">
            <mxPoint x="420" y="-1025" as="sourcePoint" />
            <mxPoint x="340" y="-1025" as="targetPoint" />
            <mxPoint as="offset" />
          </mxGeometry>
        </mxCell>
        <mxCell id="aBYrYfBs2FtseJG0C54a-4" value="&amp;lt;&amp;lt;extend&amp;gt;&amp;gt;" style="html=1;verticalAlign=bottom;endArrow=open;dashed=1;endSize=8;curved=0;rounded=0;" edge="1" parent="1" source="8Crcheac2xjCXa0UdA6q-80" target="8Crcheac2xjCXa0UdA6q-66">
          <mxGeometry relative="1" as="geometry">
            <mxPoint x="1270" y="-690" as="sourcePoint" />
            <mxPoint x="1330" y="-800" as="targetPoint" />
            <mxPoint as="offset" />
          </mxGeometry>
        </mxCell>
        <mxCell id="aBYrYfBs2FtseJG0C54a-5" value="&amp;lt;&amp;lt;include&amp;gt;&amp;gt;" style="html=1;verticalAlign=bottom;endArrow=open;dashed=1;endSize=8;curved=0;rounded=0;" edge="1" parent="1" source="8Crcheac2xjCXa0UdA6q-137" target="8Crcheac2xjCXa0UdA6q-123">
          <mxGeometry relative="1" as="geometry">
            <mxPoint x="1440" y="-400" as="sourcePoint" />
            <mxPoint x="1360" y="-400" as="targetPoint" />
            <mxPoint as="offset" />
          </mxGeometry>
        </mxCell>
        <mxCell id="aBYrYfBs2FtseJG0C54a-6" value="&amp;lt;&amp;lt;include&amp;gt;&amp;gt;" style="html=1;verticalAlign=bottom;endArrow=open;dashed=1;endSize=8;curved=0;rounded=0;" edge="1" parent="1" source="8Crcheac2xjCXa0UdA6q-122" target="8Crcheac2xjCXa0UdA6q-123">
          <mxGeometry relative="1" as="geometry">
            <mxPoint x="1350" y="-540" as="sourcePoint" />
            <mxPoint x="1270" y="-540" as="targetPoint" />
            <mxPoint as="offset" />
          </mxGeometry>
        </mxCell>
        <mxCell id="aBYrYfBs2FtseJG0C54a-7" value="&amp;lt;&amp;lt;extend&amp;gt;&amp;gt;" style="html=1;verticalAlign=bottom;endArrow=open;dashed=1;endSize=8;curved=0;rounded=0;" edge="1" parent="1" source="8Crcheac2xjCXa0UdA6q-185" target="8Crcheac2xjCXa0UdA6q-148">
          <mxGeometry relative="1" as="geometry">
            <mxPoint x="595.5" y="770" as="sourcePoint" />
            <mxPoint x="525.5" y="720" as="targetPoint" />
            <mxPoint as="offset" />
          </mxGeometry>
        </mxCell>
        <mxCell id="aBYrYfBs2FtseJG0C54a-8" value="&amp;lt;&amp;lt;extend&amp;gt;&amp;gt;" style="html=1;verticalAlign=bottom;endArrow=open;dashed=1;endSize=8;curved=0;rounded=0;" edge="1" parent="1" source="8Crcheac2xjCXa0UdA6q-186" target="8Crcheac2xjCXa0UdA6q-148">
          <mxGeometry relative="1" as="geometry">
            <mxPoint x="465.5" y="860" as="sourcePoint" />
            <mxPoint x="425.5" y="800" as="targetPoint" />
            <mxPoint as="offset" />
          </mxGeometry>
        </mxCell>
        <mxCell id="aBYrYfBs2FtseJG0C54a-10" value="Delete resources/files" style="ellipse;whiteSpace=wrap;html=1;" vertex="1" parent="1">
          <mxGeometry x="380" y="350" width="130" height="70" as="geometry" />
        </mxCell>
        <mxCell id="aBYrYfBs2FtseJG0C54a-11" value="" style="endArrow=none;html=1;rounded=0;" edge="1" parent="1" source="8Crcheac2xjCXa0UdA6q-90" target="aBYrYfBs2FtseJG0C54a-10">
          <mxGeometry width="50" height="50" relative="1" as="geometry">
            <mxPoint x="300" y="361" as="sourcePoint" />
            <mxPoint x="491" y="408" as="targetPoint" />
          </mxGeometry>
        </mxCell>
        <mxCell id="aBYrYfBs2FtseJG0C54a-12" value="Manage tasks" style="ellipse;whiteSpace=wrap;html=1;" vertex="1" parent="1">
          <mxGeometry x="490" y="-600" width="132.5" height="70" as="geometry" />
        </mxCell>
      </root>
    </mxGraphModel>
  </diagram>
</mxfile>
